#!OML:ASF E:\Mandelcareful walks\Project 1\Capture day 1\Session 1\Subject1.ASF
:FULLY-SPECIFIED
:DEGREES
341
root -4.38776 13.4319 0.964639 64.9167 71.0603 43.6536
lowerback 43.2584 -0.721609 -1.20653
upperback 9.13614 -0.485372 -2.23967
thorax -10.1826 0.328488 -1.67107
lowerneck -29.5227 11.0475 3.8255
upperneck 17.0423 19.6068 -20.5831
head 13.4508 6.62889 -4.30571
rclavicle 6.36111e-015 -1.27222e-014
rhumerus 20.3265 10.0345 -66.8017
rradius 46.0282
rwrist -16.2691
rhand -15.8895 -30.3638
rfingers 7.12502
rthumb 10.3067 -60.0912
lclavicle 6.36111e-015 -1.27222e-014
lhumerus 10.3648 -13.8744 63.2563
lradius 53.2884
lwrist 17.5142
lhand -24.8142 -16.782
lfingers 7.12502
lthumb 1.691 13.191
rfemur -79.2026 -11.9733 11.8408
rtibia 90.8027
rfoot -30.481 -5.81329
rtoes 2.47065
lfemur -69.5866 29.0445 -25.4893
ltibia 76.1101
lfoot -18.0552 7.19044
ltoes -15.0753
342
root -4.39168 13.4602 1.01381 67.1867 71.6531 45.9979
lowerback 43.3047 -0.692874 -1.16242
upperback 9.21527 -0.429259 -2.456
thorax -10.1096 0.369961 -1.95324
lowerneck -29.8026 11.0256 4.00285
upperneck 17.7728 19.7689 -20.7559
head 13.8814 6.6103 -4.37835
rclavicle 1.90833e-014 1.35174e-014
rhumerus 20.0814 10.3481 -66.5717
rradius 46.2626
rwrist -16.3049
rhand -15.9085 -30.4043
rfingers 7.12502
rthumb 10.2884 -60.1327
lclavicle 1.90833e-014 1.35174e-014
lhumerus 10.2147 -13.3813 63.0282
lradius 53.3218
lwrist 17.8384
lhand -23.7702 -16.8392
lfingers 7.12502
lthumb 2.69932 13.1235
rfemur -78.8114 -12.4022 11.964
rtibia 90.7217
rfoot -30.65 -6.26547
rtoes 2.57278
lfemur -69.3863 28.4652 -25.3566
ltibia 75.5039
lfoot -17.6938 7.09933
ltoes -15.6516
343
root -4.39274 13.4631 1.06149 69.4416 72.219 48.3332
lowerback 43.4202 -0.63874 -1.18812
upperback 9.1985 -0.390454 -2.71133
thorax -10.1657 0.401803 -2.23594
lowerneck -29.4143 11.0304 4.31583
upperneck 18.1602 19.804 -20.9146
head 14.0366 6.62294 -4.50493
rclavicle -4.29375e-014 -6.99722e-014
rhumerus 19.665 10.677 -66.5506
rradius 46.6597
rwrist -16.4115
rhand -16.1454 -30.569
rfingers 7.12502
rthumb 10.0599 -60.3086
lclavicle -4.29375e-014 -6.99722e-014
lhumerus 9.74747 -13.4814 62.6225
lradius 53.3728
lwrist 17.4653
lhand -24.5054 -16.3919
lfingers 7.12502
lthumb 1.98924 13.5786
rfemur -78.5747 -12.8267 12.1315
rtibia 90.8158
rfoot -30.8083 -6.70398
rtoes 2.15214
lfemur -69.4198 28.3104 -25.4323
ltibia 75.0075
lfoot -17.1884 6.77851
ltoes -17.1764
344
root -4.39425 13.4511 1.11057 71.5395 72.8395 50.4156
lowerback 43.4073 -0.510898 -1.25788
upperback 9.22082 -0.268536 -2.88183
thorax -10.1347 0.468447 -2.43844
lowerneck -28.7945 11.0214 4.49895
upperneck 18.1296 19.7968 -21.1593
head 13.9658 6.65424 -4.64501
rclavicle 4.45278e-014 8.34896e-014
rhumerus 19.415 10.976 -66.41
rradius 47.002
rwrist -16.6833
rhand -16.1353 -31.3895
rfingers 7.12502
rthumb 10.0696 -61.1285
lclavicle 4.45278e-014 8.34896e-014
lhumerus 9.47738 -13.3084 62.3463
lradius 53.3902
lwrist 17.6988
lhand -24.6891 -16.2342
lfingers 7.12502
lthumb 1.81187 13.7379
rfemur -78.5174 -13.1016 12.4522
rtibia 90.9923
rfoot -30.8639 -7.3038
rtoes 1.11997
lfemur -69.6935 28.3086 -25.4191
ltibia 74.6893
lfoot -16.8235 6.26946
ltoes -18.2575
345
root -4.39706 13.4441 1.1565 74.2091 73.5734 53.0425
lowerback 43.3443 -0.559873 -1.08313
upperback 9.33863 -0.241871 -3.0775
thorax -9.98866 0.49564 -2.75095
lowerneck -28.762 10.9828 4.30269
upperneck 18.2746 19.8644 -21.1261
head 14.0052 6.66699 -4.58908
rclavicle -1.43125e-014 7.31528e-014
rhumerus 19.3203 11.2102 -66.2617
rradius 47.0614
rwrist -16.4965
rhand -15.9706 -31.8357
rfingers 7.12502
rthumb 10.2285 -61.567
lclavicle -1.43125e-014 7.31528e-014
lhumerus 9.38338 -12.9689 62.0807
lradius 53.3377
lwrist 17.8588
lhand -24.8482 -16.2098
lfingers 7.12502
lthumb 1.65821 13.7635
rfemur -78.4195 -13.4974 12.8242
rtibia 91.1564
rfoot -30.9597 -7.65404
rtoes 1.20471
lfemur -69.9224 27.8581 -25.1232
ltibia 74.4613
lfoot -16.7294 5.98843
ltoes -18.6282
346
root -4.39825 13.4385 1.1964 77.1906 74.2355 56.0292
lowerback 43.4336 -0.611157 -0.982467
upperback 9.35138 -0.257984 -3.23591
thorax -10.0059 0.500854 -2.97004
lowerneck -28.7886 10.9608 4.02167
upperneck 18.6858 20.0419 -21.0168
head 14.1636 6.70205 -4.47081
rclavicle 3.18055e-015 -4.05521e-014
rhumerus 19.2455 11.6474 -66.0783
rradius 46.9555
rwrist -16.1657
rhand -16.1946 -31.5078
rfingers 7.12502
rthumb 10.0124 -61.2496
lclavicle 3.18055e-015 -4.05521e-014
lhumerus 8.9929 -12.5901 61.9583
lradius 53.2474
lwrist 17.7133
lhand -24.9951 -15.9082
lfingers 7.12502
lthumb 1.51629 14.0662
rfemur -78.2676 -13.9438 13.0788
rtibia 91.3243
rfoot -30.9996 -7.84066
rtoes 1.48524
lfemur -70.0802 27.4041 -24.8949
ltibia 74.29
lfoot -16.6372 5.71843
ltoes -18.6386
347
root -4.39767 13.4296 1.23329 80.6216 74.7866 59.4187
lowerback 43.415 -0.626334 -0.886135
upperback 9.38497 -0.237475 -3.45914
thorax -9.96838 0.524224 -3.27153
lowerneck -28.7253 10.9987 4.14288
upperneck 19.0571 20.2079 -21.1369
head 14.3719 6.74398 -4.51163
rclavicle 1.11319e-014 -1.66979e-014
rhumerus 19.2214 11.9109 -65.9463
rradius 46.887
rwrist -16.0804
rhand -16.1654 -31.6073
rfingers 7.12502
rthumb 10.0406 -61.3478
lclavicle 1.11319e-014 -1.66979e-014
lhumerus 8.7528 -12.3876 61.7327
lradius 53.1031
lwrist 17.8482
lhand -25.0027 -15.7847
lfingers 7.12502
lthumb 1.509 14.1897
rfemur -78.2407 -14.4243 13.2307
rtibia 91.5643
rfoot -30.9902 -8.20661
rtoes 1.04583
lfemur -70.3169 26.9569 -24.8058
ltibia 74.1403
lfoot -16.5316 5.32984
ltoes -17.9632
348
root -4.39441 13.4142 1.26903 84.6077 75.3553 63.3535
lowerback 43.3403 -0.700751 -0.769435
upperback 9.39018 -0.281726 -3.66549
thorax -9.95075 0.515705 -3.53703
lowerneck -28.2343 11.0942 4.52159
upperneck 19.0636 20.3303 -21.5012
head 14.4064 6.82063 -4.69832
rclavicle -1.43125e-014 7.95139e-015
rhumerus 18.9792 12.0752 -66.0535
rradius 46.9497
rwrist -15.818
rhand -15.7879 -31.7136
rfingers 7.12502
rthumb 10.4048 -61.4362
lclavicle -1.43125e-014 7.95139e-015
lhumerus 8.33771 -12.1764 61.4926
lradius 53.0174
lwrist 18.0022
lhand -25.127 -15.679
lfingers 7.12502
lthumb 1.38892 14.2962
rfemur -78.2396 -14.9878 13.4675
rtibia 91.8864
rfoot -31.1412 -8.53089
rtoes 0.700909
lfemur -70.6735 26.4529 -24.6516
ltibia 74.016
lfoot -16.2726 4.86445
ltoes -17.6913
349
root -4.38443 13.3952 1.30412 88.284 75.9011 67.1404
lowerback 43.5001 -0.674356 -0.7253
upperback 9.37593 -0.229278 -3.82257
thorax -10.015 0.552466 -3.75772
lowerneck -27.5316 11.1173 4.93099
upperneck 18.8338 20.2971 -21.9367
head 14.2884 6.86263 -4.95443
rclavicle 2.8625e-014 2.62396e-014
rhumerus 18.5588 12.0596 -66.2078
rradius 47.0398
rwrist -15.2927
rhand -15.8552 -31.1337
rfingers 7.12502
rthumb 10.3399 -60.8595
lclavicle 2.8625e-014 2.62396e-014
lhumerus 7.92902 -12.0308 61.3782
lradius 52.7983
lwrist 18.0476
lhand -25.2509 -15.2537
lfingers 7.12502
lthumb 1.2692 14.7223
rfemur -78.0366 -15.4406 13.7498
rtibia 92.1906
rfoot -31.2521 -8.9574
rtoes -0.0602007
lfemur -70.8456 26.1613 -24.3732
ltibia 73.8903
lfoot -15.696 4.25275
ltoes -18.3214
350
root -4.37173 13.3804 1.33906 91.6938 76.2782 70.7915
lowerback 43.7924 -0.598889 -0.835918
upperback 9.44497 -0.166251 -3.98687
thorax -10.018 0.604855 -3.91191
lowerneck -27.5284 11.1024 4.76718
upperneck 19.1072 20.3945 -21.8233
head 14.3823 6.88454 -4.86957
rclavicle 2.54444e-014 1.51076e-014
rhumerus 18.482 12.2259 -66.0668
rradius 47.0349
rwrist -14.9879
rhand -15.8653 -31.1757
rfingers 7.12502
rthumb 10.3301 -60.902
lclavicle 2.54444e-014 1.51076e-014
lhumerus 7.72627 -11.6913 61.3759
lradius 52.3817
lwrist 18.3139
lhand -25.2945 -14.8313
lfingers 7.12502
lthumb 1.22716 15.1449
rfemur -77.6666 -15.799 13.8346
rtibia 92.4961
rfoot -31.3212 -9.28247
rtoes -0.686863
lfemur -70.7686 25.9778 -24.163
ltibia 73.7145
lfoot -14.9825 3.59785
ltoes -18.6262
351
root -4.3597 13.3668 1.37097 95.7185 76.4867 74.9992
lowerback 43.9469 -0.560287 -0.968677
upperback 9.55767 -0.151311 -4.17518
thorax -9.93431 0.638953 -4.05703
lowerneck -28.1241 11.0951 4.30161
upperneck 20.1238 20.6441 -21.1629
head 14.8091 6.89875 -4.49493
rclavicle 2.22639e-014 4.05521e-014
rhumerus 18.4983 12.3845 -65.9171
rradius 47.0195
rwrist -14.8318
rhand -15.4997 -32.3341
rfingers 7.12502
rthumb 10.6828 -62.0425
lclavicle 2.22639e-014 4.05521e-014
lhumerus 7.49059 -11.2969 61.411
lradius 52.1773
lwrist 19.1172
lhand -25.2497 -14.567
lfingers 7.12502
lthumb 1.27043 15.409
rfemur -77.3484 -16.2602 13.7124
rtibia 92.8908
rfoot -31.518 -9.0319
rtoes -0.0664812
lfemur -70.8195 25.6734 -24.1722
ltibia 73.5477
lfoot -14.3566 2.98541
ltoes -18.3967
352
root -4.34837 13.3486 1.40121 100.427 76.6748 79.7953
lowerback 44.0154 -0.569661 -0.97644
upperback 9.63099 -0.145292 -4.34049
thorax -9.87379 0.663098 -4.23732
lowerneck -28.5193 11.0919 4.00118
upperneck 20.9946 20.8162 -20.5853
head 15.1586 6.90994 -4.19617
rclavicle 0 -1.98785e-014
rhumerus 18.3094 12.3592 -65.9854
rradius 47.0989
rwrist -14.5135
rhand -15.4476 -33.1805
rfingers 7.12502
rthumb 10.7331 -62.8863
lclavicle 0 -1.98785e-014
lhumerus 7.17342 -10.8925 61.4889
lradius 52.2738
lwrist 20.4564
lhand -24.7841 -13.6493
lfingers 7.12502
lthumb 1.72012 16.3235
rfemur -77.0973 -16.7751 13.6227
rtibia 93.3224
rfoot -31.7624 -8.45951
rtoes 0.897858
lfemur -71.0779 25.3037 -24.1871
ltibia 73.4337
lfoot -13.8876 2.14338
ltoes -17.6686
353
root -4.34283 13.331 1.43926 105.003 76.9784 84.3408
lowerback 43.9839 -0.478058 -0.898225
upperback 9.65148 0.0084564 -4.46136
thorax -9.83628 0.743741 -4.47731
lowerneck -28.0492 11.1273 4.40566
upperneck 21.045 20.8241 -20.8519
head 15.1847 6.94772 -4.38249
rclavicle -2.06736e-014 -2.38542e-015
rhumerus 17.896 12.1151 -66.2502
rradius 47.2014
rwrist -13.9476
rhand -15.9189 -32.8577
rfingers 7.12502
rthumb 10.2784 -62.5866
lclavicle -2.06736e-014 -2.38542e-015
lhumerus 6.98739 -10.6039 61.637
lradius 52.1305
lwrist 21.3062
lhand -24.5613 -12.5536
lfingers 7.12502
lthumb 1.93527 17.4174
rfemur -76.9935 -17.0159 13.7927
rtibia 93.7668
rfoot -32.0426 -7.9299
rtoes 1.95918
lfemur -71.5079 25.1198 -24.0544
ltibia 73.2849
lfoot -13.3184 1.31034
ltoes -17.6546
354
root -4.33922 13.3277 1.48211 108.883 77.2946 88.1876
lowerback 44.1881 -0.292429 -1.08552
upperback 9.59303 0.161014 -4.46431
thorax -9.94642 0.820052 -4.4574
lowerneck -27.8397 11.2637 4.57212
upperneck 21.0719 21.1589 -21.2809
head 15.3157 7.07306 -4.50198
rclavicle -1.74931e-014 3.73715e-014
rhumerus 17.6435 12.1888 -66.5001
rradius 47.2757
rwrist -13.215
rhand -15.9339 -32.7355
rfingers 7.12502
rthumb 10.264 -62.4651
lclavicle -1.74931e-014 3.73715e-014
lhumerus 6.60863 -10.01 62.0031
lradius 51.655
lwrist 21.2964
lhand -25.223 -12.7536
lfingers 7.12502
lthumb 1.29617 17.2222
rfemur -76.9509 -16.9191 14.0753
rtibia 94.1112
rfoot -32.1125 -8.08256
rtoes 1.92486
lfemur -71.8243 25.1074 -23.8741
ltibia 73.0416
lfoot -12.6845 0.923693
ltoes -18.8158
355
root -4.32658 13.3367 1.52239 113.124 77.2212 92.6599
lowerback 44.5577 -0.189762 -1.06913
upperback 9.58568 0.295239 -4.67957
thorax -10.0533 0.902497 -4.77105
lowerneck -27.5472 11.1846 4.75063
upperneck 21.3879 21.0835 -21.2821
head 15.407 7.05528 -4.57562
rclavicle 1.43125e-014 5.56597e-015
rhumerus 18.0785 12.2726 -65.9718
rradius 46.6912
rwrist -13.5157
rhand -15.769 -32.9461
rfingers 7.12502
rthumb 10.423 -62.6678
lclavicle 1.43125e-014 5.56597e-015
lhumerus 6.35737 -9.91249 62.2684
lradius 51.3607
lwrist 21.2269
lhand -25.7728 -13.1644
lfingers 7.12502
lthumb 0.765148 16.8139
rfemur -76.5009 -17.063 13.987
rtibia 94.2447
rfoot -31.9329 -8.98518
rtoes -0.260379
lfemur -71.6086 24.7708 -23.8053
ltibia 72.68
lfoot -12.2653 0.575046
ltoes -19.4183
